<svg id="Layer_1" xmlns="http://www.w3.org/2000/svg" viewBox="0 0 25 30">
  <path d="M1.89,0C.43,0-.2,1.66,.06,2.62L8.35,30h4.3L4.02,1.51c-.13-.46-.41-.85-.8-1.13C2.83,.11,2.36-.02,1.89,0Z" fill="#633208"/>
  <path d="M3.44,13.75l.65,2.16h4.3l-.65-2.16H3.44Z" fill="#533011"/>
  <path d="M12.9,7.47c-1.02,0-1.56,.85-1.3,1.85l2.09,7.67c.26,1,1.12,1.48,2.14,1.48h7.8c1.02,0,1.56-.85,1.3-1.85l-2.09-7.67c-.26-1-1.12-1.48-2.14-1.48h-7.81Z" fill="#ef6356"/>
  <path d="M17.57,8.9l.9,3.3c.26,1-.29,1.85-1.3,1.85h-4.28l.51,1.87c1.22,0,2.45,0,3.67,0,2.39,0,3.87-1.56,3.15-4.45l-.58-2.03c-.19-.7-1.18-1.05-2.07-.52h0Z" fill="#d85750"/>
  <path d="M.2,3.05L3.53,14.04h13.65c1.02,0,1.56-.84,1.3-1.85l-2.09-7.67c-.26-1-1.12-1.48-2.14-1.48H.2Z" fill="#ef6356"/>
</svg>
